<svg width="69" height="53" viewBox="0 0 69 53" fill="none" xmlns="http://www.w3.org/2000/svg">
<path d="M22.56 52.864C17.904 52.864 13.92 51.784 10.608 49.624C7.296 47.416 4.728 44.368 2.904 40.48C1.128 36.544 0.24 31.984 0.24 26.8C0.24 21.664 1.128 17.128 2.904 13.192C4.728 9.256 7.296 6.208 10.608 4.048C13.92 1.84 17.904 0.735999 22.56 0.735999C27.216 0.735999 31.2 1.84 34.512 4.048C37.824 6.208 40.368 9.256 42.144 13.192C43.968 17.128 44.88 21.664 44.88 26.8C44.88 31.984 43.968 36.544 42.144 40.48C40.368 44.368 37.824 47.416 34.512 49.624C31.2 51.784 27.216 52.864 22.56 52.864ZM22.56 44.584C26.352 44.584 29.448 43 31.848 39.832C34.248 36.664 35.448 32.32 35.448 26.8C35.448 21.28 34.248 16.936 31.848 13.768C29.448 10.6 26.352 9.016 22.56 9.016C18.72 9.016 15.6 10.6 13.2 13.768C10.848 16.936 9.672 21.28 9.672 26.8C9.672 32.32 10.848 36.664 13.2 39.832C15.6 43 18.72 44.584 22.56 44.584ZM58.4852 52V12.112L50.2052 14.056V7L62.3732 1.6H68.0612V52H58.4852Z" fill="#EBEBEB"/>
</svg>
