<svg width="104" height="30" viewBox="0 0 104 30" fill="none" xmlns="http://www.w3.org/2000/svg">
<path d="M0.72 29V0.999998H11.08C13.32 0.999998 15.1733 1.37333 16.64 2.12C18.1067 2.86666 19.2 3.89333 19.92 5.2C20.64 6.50667 21 7.97333 21 9.6C21 11.1467 20.6533 12.5733 19.96 13.88C19.2667 15.16 18.1867 16.2 16.72 17C15.2533 17.7733 13.3733 18.16 11.08 18.16H5.84V29H0.72ZM5.84 14H10.76C12.5467 14 13.8267 13.6133 14.6 12.84C15.4 12.04 15.8 10.96 15.8 9.6C15.8 8.21333 15.4 7.13333 14.6 6.36C13.8267 5.56 12.5467 5.16 10.76 5.16H5.84V14ZM25.0169 29V0.999998H30.1369V12.64H42.6969V0.999998H47.8169V29H42.6969V16.8H30.1369V29H25.0169ZM66.3791 29.48C63.5791 29.48 61.1257 28.8667 59.0191 27.64C56.9391 26.4133 55.2991 24.72 54.0991 22.56C52.9257 20.3733 52.3391 17.8533 52.3391 15C52.3391 12.1467 52.9257 9.64 54.0991 7.48C55.2991 5.29333 56.9391 3.58667 59.0191 2.36C61.1257 1.13333 63.5791 0.52 66.3791 0.52C69.1524 0.52 71.5924 1.13333 73.6991 2.36C75.8057 3.58667 77.4457 5.29333 78.6191 7.48C79.7924 9.64 80.3791 12.1467 80.3791 15C80.3791 17.8533 79.7924 20.3733 78.6191 22.56C77.4457 24.72 75.8057 26.4133 73.6991 27.64C71.5924 28.8667 69.1524 29.48 66.3791 29.48ZM66.3791 24.88C69.0457 24.88 71.1657 24 72.7391 22.24C74.3391 20.48 75.1391 18.0667 75.1391 15C75.1391 11.9333 74.3391 9.52 72.7391 7.76C71.1657 6 69.0457 5.12 66.3791 5.12C63.7124 5.12 61.5791 6 59.9791 7.76C58.3791 9.52 57.5791 11.9333 57.5791 15C57.5791 18.0667 58.3791 20.48 59.9791 22.24C61.5791 24 63.7124 24.88 66.3791 24.88ZM90.4041 29V5.12H82.2441V0.999998H103.724V5.12H95.5241V29H90.4041Z" fill="white"/>
</svg>
